HIERARCHY
ROOT root
{
	OFFSET 0.000000 0.000000 0.000000
	CHANNELS 6 Xposition Yposition Zposition Zrotation Yrotation Xrotation
	JOINT lhip
	{
		OFFSET 0.058581 -0.082280 -0.017664
		CHANNELS 3 Zrotation Yrotation Xrotation
		JOINT lknee
		{
			OFFSET 0.043451 -0.386469 0.008037
			CHANNELS 3 Zrotation Yrotation Xrotation
			JOINT lankle
			{
				OFFSET -0.014790 -0.426874 -0.037428
				CHANNELS 3 Zrotation Yrotation Xrotation
				JOINT ltoe
				{
					OFFSET 0.041054 -0.060286 0.122042
					CHANNELS 3 Zrotation Yrotation Xrotation
					End Site
					{
						OFFSET 0.000000 0.000000 0.000000
					}
				}
			}
		}
	}
	JOINT rhip
	{
		OFFSET -0.060310 -0.090513 -0.013543
		CHANNELS 3 Zrotation Yrotation Xrotation
		JOINT rknee
		{
			OFFSET -0.043257 -0.383688 -0.004843
			CHANNELS 3 Zrotation Yrotation Xrotation
			JOINT rankle
			{
				OFFSET 0.019056 -0.420046 -0.034562
				CHANNELS 3 Zrotation Yrotation Xrotation
				JOINT rtoe
				{
					OFFSET -0.034840 -0.062106 0.130323
					CHANNELS 3 Zrotation Yrotation Xrotation
					End Site
					{
						OFFSET 0.000000 0.000000 0.000000
					}
				}
			}
		}
	}
	JOINT lowerback
	{
		OFFSET 0.004439 0.124404 -0.038385
		CHANNELS 3 Zrotation Yrotation Xrotation
		JOINT upperback
		{
			OFFSET 0.004488 0.137956 0.026820
			CHANNELS 3 Zrotation Yrotation Xrotation
			JOINT chest
			{
				OFFSET -0.002265 0.056032 0.002855
				CHANNELS 3 Zrotation Yrotation Xrotation
				JOINT lowerneck
				{
					OFFSET -0.013390 0.211636 -0.033468
					CHANNELS 3 Zrotation Yrotation Xrotation
					JOINT upperneck
					{
						OFFSET 0.010113 0.088937 0.050410
						CHANNELS 3 Zrotation Yrotation Xrotation
						End Site
						{
							OFFSET 0.000000 0.000000 0.000000
						}
					}
				}
				JOINT lclavicle
				{
					OFFSET 0.071702 0.114000 -0.018898
					CHANNELS 3 Zrotation Yrotation Xrotation
					JOINT lshoulder
					{
						OFFSET 0.122921 0.045205 -0.019046
						CHANNELS 3 Zrotation Yrotation Xrotation
						JOINT lelbow
						{
							OFFSET 0.255332 -0.015649 -0.022946
							CHANNELS 3 Zrotation Yrotation Xrotation
							JOINT lwrist
							{
								OFFSET 0.265709 0.012698 -0.007375
								CHANNELS 3 Zrotation Yrotation Xrotation
								End Site
								{
									OFFSET 0.000000 0.000000 0.000000
								}
							}
						}
					}
				}
				JOINT rclavicle
				{
					OFFSET -0.082954 0.112472 -0.023707
					CHANNELS 3 Zrotation Yrotation Xrotation
					JOINT rshoulder
					{
						OFFSET -0.113228 0.046853 -0.008472
						CHANNELS 3 Zrotation Yrotation Xrotation
						JOINT relbow
						{
							OFFSET -0.260127 -0.014369 -0.031269
							CHANNELS 3 Zrotation Yrotation Xrotation
							JOINT rwrist
							{
								OFFSET -0.269108 0.006794 -0.006027
								CHANNELS 3 Zrotation Yrotation Xrotation
								End Site
								{
									OFFSET 0.000000 0.000000 0.000000
								}
							}
						}
					}
				}
			}
		}
	}
}
MOTION
Frames: 10
Frame Time: 0.033333
1.272002 0.687611 0.996135 -91.661277 -0.417764 85.651485 -3.752198 -0.728802 2.468560 0.271690 -8.427210 3.487416 3.765958 12.908470 -12.688247 0.000000 -0.000000 0.000000 2.718222 -3.689187 2.163982 -3.511808 2.039084 5.943178 1.322705 -10.456249 -12.711122 0.000000 -0.000000 0.000000 -0.941635 4.038517 6.464009 -0.836849 -2.662275 4.869786 -1.615951 0.070879 -3.549598 2.128892 -1.716755 -5.456795 5.899450 0.287269 5.086260 -28.784645 -7.184719 -0.007666 -50.514704 -7.455368 16.901741 -2.607026 -19.067231 5.933886 -1.780826 0.108823 3.413218 24.743225 8.957733 1.326543 57.098063 1.283693 22.327897 0.759352 25.708022 10.974813 -2.361691 -0.295796 5.896975 
1.269441 0.686490 0.997248 -90.820490 -0.302156 84.880569 -3.916163 -1.039790 3.705099 0.678580 -8.648012 3.155185 3.696823 12.480586 -12.694848 0.000000 -0.000000 0.000000 2.779367 -2.161307 3.759886 -3.293581 0.009828 5.214257 0.938081 -10.848301 -12.766556 0.000000 -0.000000 0.000000 -1.101180 3.711863 6.620693 -0.392924 -3.025337 5.892356 -1.315238 -0.205863 -4.046245 1.081063 -1.373964 -5.045116 6.807766 0.134789 4.792105 -28.795965 -7.182276 -0.240413 -50.888503 -7.246201 15.644589 -3.076677 -19.819050 5.173772 -8.323828 -3.715497 6.567865 26.686288 9.360425 1.464424 54.958294 2.047598 20.634606 0.266165 25.531143 12.040149 7.606528 4.926758 12.904516 
1.269115 0.686187 0.996800 -90.665534 -0.313195 84.806011 -3.949375 -1.155773 3.831073 0.712605 -8.695288 3.098663 3.778025 12.425857 -12.778996 0.000000 -0.000000 0.000000 2.758585 -2.233682 3.862895 -3.296779 -0.048865 5.174392 0.877566 -10.762926 -12.846411 0.000000 -0.000000 0.000000 -1.111294 3.566185 7.007007 -0.425023 -2.943001 5.226780 -1.218027 -0.264768 -3.735993 1.040407 -1.469270 -4.980708 6.797413 0.261335 4.934955 -28.315145 -7.094007 -0.034106 -51.661284 -7.379054 15.694830 -2.664696 -19.933265 5.650538 -8.499847 -4.198748 5.951772 25.783431 9.376360 1.441716 56.122037 1.803072 21.150820 0.106897 25.751200 12.846993 7.786352 5.010328 11.587099 
1.269382 0.686309 0.996475 -90.574024 -0.258143 84.874658 -3.842872 -1.259148 3.660294 0.641413 -8.597413 3.224289 3.801964 12.319845 -12.839658 0.000000 -0.000000 0.000000 2.854992 -2.415582 3.697010 -3.340296 0.058305 5.210955 0.922753 -10.759430 -12.825955 0.000000 -0.000000 0.000000 -1.139999 3.641814 7.087962 -0.340638 -3.026225 4.953053 -1.219684 -0.211009 -3.627950 1.101674 -1.499079 -4.803095 6.821947 0.215468 4.931070 -28.120531 -7.058724 -0.182216 -51.927455 -7.418248 15.854651 -2.748073 -19.801332 5.629821 -8.724212 -4.040894 5.880594 25.545036 9.320799 1.293916 56.440247 1.737891 21.508336 0.125079 25.836629 13.581759 8.240103 4.685694 11.899392 
1.269390 0.686259 0.996310 -90.510027 -0.239344 84.896347 -3.803653 -1.276987 3.603610 0.605216 -8.605041 3.249425 3.750543 12.276761 -12.704125 0.000000 -0.000000 0.000000 2.875860 -2.477782 3.645450 -3.355970 -0.020826 5.253073 0.853705 -10.752621 -12.768544 0.000000 -0.000000 0.000000 -1.197048 3.667126 6.999550 -0.293092 -3.065668 5.069285 -1.186499 -0.203384 -3.683613 1.150952 -1.508736 -4.721403 6.801810 0.194467 5.066491 -28.155009 -7.069843 -0.176918 -51.895316 -7.381423 15.887797 -2.816013 -19.929582 5.525203 -8.657054 -3.997071 5.863341 25.557131 9.331712 1.263671 56.312094 1.742810 21.550940 0.210771 25.884348 13.717184 8.298807 4.740445 12.060654 
1.269499 0.685853 0.996147 -90.397413 -0.312808 84.826143 -3.958775 -1.306411 3.639558 0.655493 -8.695556 3.287221 3.810157 12.331262 -12.714270 0.000000 -0.000000 0.000000 2.805682 -2.341479 3.710941 -3.381613 -0.075376 5.287123 0.824417 -10.869706 -12.727537 0.000000 -0.000000 0.000000 -1.188684 3.561862 7.194149 -0.374601 -3.051330 4.838916 -1.234541 -0.165804 -3.632809 1.150269 -1.624282 -4.713842 6.831793 0.201042 5.329507 -28.024476 -6.937913 -0.220582 -52.032295 -7.478859 15.962672 -2.805602 -19.826165 5.684005 -8.508708 -3.985015 5.733660 25.367216 9.233719 1.115384 56.530489 1.838302 21.613682 0.317362 25.693588 13.555846 7.846531 4.899043 11.525375 
1.269249 0.685588 0.996115 -90.098402 -0.313514 84.760509 -3.973421 -1.400150 3.719141 0.631146 -8.901501 3.283429 3.779412 12.318673 -12.775039 0.000000 -0.000000 0.000000 2.777837 -2.499057 3.901849 -3.375237 -0.136656 5.096951 0.834833 -11.001985 -12.723831 0.000000 -0.000000 0.000000 -1.255020 3.495888 7.029403 -0.329782 -3.145113 5.075553 -1.192131 -0.235134 -3.648483 1.153342 -1.758615 -4.735846 6.816117 0.101739 5.699653 -28.079143 -6.973616 -0.020035 -51.945820 -7.627083 15.876630 -2.819085 -19.846098 5.799197 -8.378818 -4.033914 5.689676 25.376532 9.288108 1.151853 56.439050 1.981407 21.541814 0.369987 25.547117 13.416804 7.529601 4.961584 11.351277 
1.269687 0.685595 0.995928 -90.297465 -0.358106 84.688504 -4.025303 -1.354730 3.824402 0.631290 -8.792094 3.189677 3.784760 12.439444 -12.751618 0.000000 -0.000000 0.000000 2.747429 -2.311057 3.878909 -3.400183 -0.116387 5.239133 0.792668 -10.991419 -12.702370 0.000000 -0.000000 0.000000 -1.237064 3.569974 7.258856 -0.373531 -3.011058 4.828047 -1.220559 -0.172823 -3.649615 1.132772 -1.951858 -4.476407 6.840661 0.052719 5.811906 -28.179558 -6.967088 0.040976 -51.843176 -7.601851 15.921928 -2.688182 -19.877539 5.814975 -8.474230 -4.244288 5.798049 25.384195 9.343343 1.184819 56.484461 1.948530 21.531168 0.311339 25.467678 13.377929 7.528581 5.072464 11.279453 
1.269954 0.685421 0.995824 -90.089757 -0.336605 84.723369 -4.034983 -1.388606 3.679574 0.616021 -8.917556 3.318425 3.849339 12.410933 -12.756832 0.000000 -0.000000 0.000000 2.752874 -2.412478 3.845731 -3.373923 -0.145508 5.185452 0.773081 -11.078018 -12.697838 0.000000 -0.000000 0.000000 -1.271120 3.480112 7.143255 -0.343371 -3.091192 4.902773 -1.241023 -0.097331 -3.717637 1.235769 -2.089504 -4.570905 6.855093 -0.114195 6.143466 -28.250183 -6.885314 -0.027373 -51.766544 -7.669270 15.940033 -2.651828 -19.808482 5.873434 -8.597357 -4.278848 5.942047 25.509830 9.295234 1.277836 56.380243 1.867130 21.649198 0.278734 25.619134 13.495647 7.649589 4.991859 11.419936 
1.270700 0.685559 0.995674 -90.318829 -0.252696 84.752173 -3.888528 -1.340728 3.557616 0.548966 -8.686504 3.397989 3.825689 12.349464 -12.762172 0.000000 -0.000000 0.000000 2.828211 -2.445376 3.648579 -3.361904 -0.065339 5.362296 0.828534 -10.883631 -12.747902 0.000000 -0.000000 0.000000 -1.180398 3.671762 7.235291 -0.288863 -3.073495 4.753877 -1.232071 -0.094419 -3.749410 1.107520 -2.064138 -4.303772 6.905768 -0.074330 6.035544 -28.291257 -6.897274 -0.051110 -51.740227 -7.602061 15.891860 -2.654498 -19.889414 5.423382 -8.621145 -3.907822 5.758508 25.624403 9.327719 1.340846 56.360463 1.955036 21.527944 0.093960 25.824503 13.053163 8.109586 4.787113 11.306123 
